<svg width="20.000000" height="20.000000" viewBox="0 0 20 20" fill="none" xmlns="http://www.w3.org/2000/svg" xmlns:xlink="http://www.w3.org/1999/xlink">
	<desc>
			Created with Pixso.
	</desc>
	<defs>
		<clipPath id="clip8313_1316">
			<rect id="twitter" rx="-0.500000" width="19.000000" height="19.000000" transform="translate(0.500000 0.500000)" fill="white" fill-opacity="0"/>
		</clipPath>
	</defs>
	<g clip-path="url(#clip8313_1316)">
		<path id="Vector" d="M18.71 5.01C18.07 5.29 17.38 5.48 16.66 5.57C17.4 5.13 17.96 4.42 18.23 3.59C17.54 4 16.77 4.3 15.96 4.46C15.31 3.76 14.38 3.33 13.35 3.33C11.37 3.33 9.77 4.93 9.77 6.9C9.77 7.18 9.8 7.46 9.86 7.72C6.89 7.57 4.26 6.15 2.49 3.98C2.18 4.51 2.01 5.13 2.01 5.78C2.01 7.02 2.64 8.12 3.6 8.76C3.01 8.74 2.46 8.58 1.98 8.31C1.98 8.33 1.98 8.34 1.98 8.36C1.98 10.09 3.21 11.53 4.85 11.86C4.55 11.94 4.23 11.99 3.91 11.99C3.68 11.99 3.45 11.97 3.23 11.92C3.69 13.34 5.01 14.38 6.57 14.41C5.35 15.37 3.81 15.94 2.13 15.94C1.84 15.94 1.56 15.92 1.28 15.89C2.86 16.9 4.74 17.5 6.76 17.5C13.34 17.5 16.94 12.05 16.94 7.32C16.94 7.16 16.93 7.01 16.93 6.86C17.63 6.35 18.23 5.72 18.71 5.01Z" fill="#0B1D26" fill-opacity="1.000000" fill-rule="evenodd"/>
	</g>
</svg>
