<svg width="16.666992" height="16.666656" viewBox="0 0 16.667 16.6667" fill="none" xmlns="http://www.w3.org/2000/svg" xmlns:xlink="http://www.w3.org/1999/xlink">
	<desc>
			Created with Pixso.
	</desc>
	<defs/>
	<path id="Vector" d="M4.83 0L11.83 0C14.5 0 16.66 2.16 16.66 4.83L16.66 11.83C16.66 14.5 14.5 16.66 11.83 16.66L4.83 16.66C2.16 16.66 0 14.5 0 11.83L0 4.83C0 2.16 2.16 0 4.83 0ZM4.66 1.66C3 1.66 1.66 3 1.66 4.66L1.66 12C1.66 13.65 3 15 4.66 15L12 15C13.65 15 15 13.65 15 12L15 4.66C15 3 13.65 1.66 12 1.66L4.66 1.66ZM12.7 2.91C13.28 2.91 13.75 3.38 13.75 3.95C13.75 4.53 13.28 4.99 12.7 4.99C12.13 4.99 11.66 4.53 11.66 3.95C11.66 3.38 12.13 2.91 12.7 2.91ZM8.33 4.16C10.63 4.16 12.5 6.03 12.5 8.33C12.5 10.63 10.63 12.5 8.33 12.5C6.03 12.5 4.16 10.63 4.16 8.33C4.16 6.03 6.03 4.16 8.33 4.16ZM8.33 5.83C6.95 5.83 5.83 6.95 5.83 8.33C5.83 9.71 6.95 10.83 8.33 10.83C9.71 10.83 10.83 9.71 10.83 8.33C10.83 6.95 9.71 5.83 8.33 5.83Z" fill="#0B1D26" fill-opacity="1.000000" fill-rule="nonzero"/>
</svg>
