<svg width="21.440430" height="22.459015" viewBox="0 0 21.4404 22.459" fill="none" xmlns="http://www.w3.org/2000/svg" xmlns:xlink="http://www.w3.org/1999/xlink">
	<desc>
			Created with Pixso.
	</desc>
	<defs/>
	<path id="icon/action/account_circle_24px" d="M10.7202 0C4.80273 0 0 5.03082 0 11.2295C0 17.4282 4.80273 22.459 10.7202 22.459C16.6377 22.459 21.4404 17.4282 21.4404 11.2295C21.4404 5.03082 16.6377 0 10.7202 0ZM10.7202 14.0369C12.2856 14.0369 16.0054 14.6994 17.5386 16.6534C18.6318 15.1486 19.2964 13.2733 19.2964 11.2295C19.2964 6.27728 15.4478 2.24591 10.7202 2.24591C5.99268 2.24591 2.14404 6.27728 2.14404 11.2295C2.14404 13.2733 2.80859 15.1486 3.90234 16.6534C5.43506 14.6994 9.15527 14.0369 10.7202 14.0369ZM10.7202 4.49179C8.64062 4.49179 6.96826 6.24359 6.96826 8.42212C6.96826 10.6006 8.64062 12.3524 10.7202 12.3524C12.7998 12.3524 14.4722 10.6006 14.4722 8.42212C14.4722 6.24359 12.7998 4.49179 10.7202 4.49179ZM9.1123 8.42212C9.1123 9.35419 9.83057 10.1066 10.7202 10.1066C11.6099 10.1066 12.3281 9.35419 12.3281 8.42212C12.3281 7.49008 11.6099 6.7377 10.7202 6.7377C9.83057 6.7377 9.1123 7.49008 9.1123 8.42212ZM5.43506 18.2816C5.896 17.271 8.70508 16.2828 10.7202 16.2828C12.7358 16.2828 15.5552 17.271 16.0054 18.2816C14.5474 19.4944 12.7144 20.2131 10.7202 20.2131C8.72607 20.2131 6.89307 19.4944 5.43506 18.2816Z" clip-rule="evenodd" fill="#FFFFFF" fill-opacity="1.000000" fill-rule="evenodd"/>
</svg>
